# xmcd
#
# Track frame offsets: 
#        150
#        15160
#        29029
#        44154
#        57962
#        73227
#        92259
#        114339
#        126604
#        140815
#        154210
#
# Disc length: 2218 seconds
#
# Revision: 0
# Processed by: cddbd v1.5.2PL0 Copyright (c) Steve Scherf et al.
# Submitted via: ExactAudioCopy v0.99pb3
#
DISCID=a008a80b
DTITLE=Baby Animals - Il Grande Silenzio
DYEAR=2007
DGENRE=Country
TTITLE0=One Word
TTITLE1=Early Warning
TTITLE2=Stitch
TTITLE3=Rush You
TTITLE4=Make it End
TTITLE5=Painless
TTITLE6=Submarine
TTITLE7=U Still Need Me
TTITLE8=Satellite
TTITLE9=Don't Tell Me What To Do
TTITLE10=Working For The Enemy
EXTD=
EXTT0=
EXTT1=
EXTT2=
EXTT3=
EXTT4=
EXTT5=
EXTT6=
EXTT7=
EXTT8=
EXTT9=
EXTT10=
PLAYORDER=
